<svg width="227" height="52" viewBox="0 0 227 52" fill="none" xmlns="http://www.w3.org/2000/svg">
<path fill-rule="evenodd" clip-rule="evenodd" d="M20.7465 13.5647C14.5686 11.6088 7.90068 14.9086 5.64279 20.7589L0 35.2995H4.24241C5.39908 35.2995 6.50288 34.7629 7.05606 33.5526L11.301 22.6753C12.4474 19.7044 15.8543 18.0168 18.9735 19.0615C22.1508 20.1259 23.7872 23.4752 22.6241 26.4881C21.4738 29.4677 18.0231 30.9896 14.9155 29.8868L12.8342 35.2821C19.0496 37.4865 25.9522 34.4439 28.2513 28.4848C30.6008 22.3958 27.2352 15.617 20.7491 13.5647H20.7465Z" fill="#E56809"/>
<path d="M46.712 14.608C46.8613 14.8427 46.9893 15.1627 47.096 15.568C47.224 15.952 47.288 16.3573 47.288 16.784C47.288 17.616 47.1067 18.2133 46.744 18.576C46.4027 18.9173 45.9333 19.088 45.336 19.088H38.616V22.704H45.624C45.7947 22.9387 45.9333 23.248 46.04 23.632C46.168 24.016 46.232 24.4213 46.232 24.848C46.232 25.6587 46.0507 26.2453 45.688 26.608C45.3467 26.9493 44.8773 27.12 44.28 27.12H38.68V33.872C38.4453 33.936 38.072 34 37.56 34.064C37.0693 34.128 36.5787 34.16 36.088 34.16C35.5973 34.16 35.16 34.1173 34.776 34.032C34.4133 33.968 34.104 33.84 33.848 33.648C33.592 33.456 33.4 33.1893 33.272 32.848C33.144 32.5067 33.08 32.0587 33.08 31.504V17.584C33.08 16.6667 33.3467 15.9413 33.88 15.408C34.4133 14.8747 35.1387 14.608 36.056 14.608H46.712ZM49.286 14.128C49.286 13.3173 49.5527 12.6347 50.086 12.08C50.6407 11.5253 51.366 11.248 52.262 11.248C53.158 11.248 53.8727 11.5253 54.406 12.08C54.9607 12.6347 55.238 13.3173 55.238 14.128C55.238 14.9387 54.9607 15.6213 54.406 16.176C53.8727 16.7307 53.158 17.008 52.262 17.008C51.366 17.008 50.6407 16.7307 50.086 16.176C49.5527 15.6213 49.286 14.9387 49.286 14.128ZM54.982 33.968C54.7473 34.0107 54.3953 34.064 53.926 34.128C53.478 34.2133 53.0193 34.256 52.55 34.256C52.0807 34.256 51.654 34.224 51.27 34.16C50.9073 34.096 50.598 33.968 50.342 33.776C50.086 33.584 49.8833 33.328 49.734 33.008C49.606 32.6667 49.542 32.2293 49.542 31.696V18.672C49.7767 18.6293 50.118 18.576 50.566 18.512C51.0353 18.4267 51.5047 18.384 51.974 18.384C52.4433 18.384 52.8593 18.416 53.222 18.48C53.606 18.544 53.926 18.672 54.182 18.864C54.438 19.056 54.63 19.3227 54.758 19.664C54.9073 19.984 54.982 20.4107 54.982 20.944V33.968ZM68.3013 24.144C68.3013 23.4827 68.1093 23.0027 67.7253 22.704C67.3626 22.384 66.8613 22.224 66.2213 22.224C65.7946 22.224 65.3679 22.2773 64.9413 22.384C64.5359 22.4907 64.1839 22.6507 63.8853 22.864V33.968C63.6719 34.032 63.3306 34.096 62.8613 34.16C62.4133 34.224 61.9439 34.256 61.4533 34.256C60.9839 34.256 60.5573 34.224 60.1733 34.16C59.8106 34.096 59.5013 33.968 59.2453 33.776C58.9893 33.584 58.7866 33.328 58.6373 33.008C58.5093 32.6667 58.4453 32.2293 58.4453 31.696V22.096C58.4453 21.52 58.5626 21.0507 58.7973 20.688C59.0533 20.3253 59.3946 19.9947 59.8213 19.696C60.5466 19.184 61.4533 18.768 62.5413 18.448C63.6506 18.128 64.8773 17.968 66.2213 17.968C68.6319 17.968 70.4879 18.5013 71.7893 19.568C73.0906 20.6133 73.7413 22.0747 73.7413 23.952V33.968C73.5279 34.032 73.1866 34.096 72.7173 34.16C72.2693 34.224 71.7999 34.256 71.3093 34.256C70.8399 34.256 70.4133 34.224 70.0293 34.16C69.6666 34.096 69.3573 33.968 69.1013 33.776C68.8453 33.584 68.6426 33.328 68.4933 33.008C68.3653 32.6667 68.3013 32.2293 68.3013 31.696V24.144Z" fill="#E56809"/>
<path d="M83.0855 29.84C83.3202 29.8827 83.6082 29.9253 83.9495 29.968C84.2908 29.9893 84.6108 30 84.9095 30C85.6348 30 86.2962 29.8933 86.8935 29.68C87.5122 29.4667 88.0348 29.136 88.4615 28.688C88.9095 28.24 89.2508 27.664 89.4855 26.96C89.7415 26.2347 89.8695 25.3707 89.8695 24.368C89.8695 22.448 89.4215 21.008 88.5255 20.048C87.6295 19.0667 86.4348 18.576 84.9415 18.576C84.6428 18.576 84.3335 18.5867 84.0135 18.608C83.7148 18.6293 83.4055 18.6613 83.0855 18.704V29.84ZM84.8775 34.512C84.5148 34.512 84.0988 34.5013 83.6295 34.48C83.1602 34.4587 82.6695 34.416 82.1575 34.352C81.6668 34.288 81.1655 34.2027 80.6535 34.096C80.1628 34.0107 79.7042 33.8827 79.2775 33.712C78.1042 33.264 77.5175 32.4853 77.5175 31.376V16.432C77.5175 15.984 77.6348 15.6427 77.8695 15.408C78.1255 15.152 78.4668 14.9493 78.8935 14.8C79.8108 14.5013 80.7815 14.3093 81.8055 14.224C82.8295 14.1173 83.7468 14.064 84.5575 14.064C86.2215 14.064 87.7255 14.2667 89.0695 14.672C90.4348 15.0773 91.5975 15.7067 92.5575 16.56C93.5388 17.392 94.2962 18.448 94.8295 19.728C95.3628 21.008 95.6295 22.5227 95.6295 24.272C95.6295 25.9787 95.3735 27.472 94.8615 28.752C94.3495 30.0107 93.6135 31.0773 92.6535 31.952C91.7148 32.8053 90.5842 33.4453 89.2615 33.872C87.9388 34.2987 86.4775 34.512 84.8775 34.512ZM98.286 14.128C98.286 13.3173 98.5527 12.6347 99.086 12.08C99.6407 11.5253 100.366 11.248 101.262 11.248C102.158 11.248 102.873 11.5253 103.406 12.08C103.961 12.6347 104.238 13.3173 104.238 14.128C104.238 14.9387 103.961 15.6213 103.406 16.176C102.873 16.7307 102.158 17.008 101.262 17.008C100.366 17.008 99.6407 16.7307 99.086 16.176C98.5527 15.6213 98.286 14.9387 98.286 14.128ZM103.982 33.968C103.747 34.0107 103.395 34.064 102.926 34.128C102.478 34.2133 102.019 34.256 101.55 34.256C101.081 34.256 100.654 34.224 100.27 34.16C99.9073 34.096 99.598 33.968 99.342 33.776C99.086 33.584 98.8833 33.328 98.734 33.008C98.606 32.6667 98.542 32.2293 98.542 31.696V18.672C98.7767 18.6293 99.118 18.576 99.566 18.512C100.035 18.4267 100.505 18.384 100.974 18.384C101.443 18.384 101.859 18.416 102.222 18.48C102.606 18.544 102.926 18.672 103.182 18.864C103.438 19.056 103.63 19.3227 103.758 19.664C103.907 19.984 103.982 20.4107 103.982 20.944V33.968ZM120.565 29.36C120.565 30.9813 119.957 32.2507 118.741 33.168C117.525 34.0853 115.733 34.544 113.365 34.544C112.469 34.544 111.637 34.48 110.869 34.352C110.101 34.224 109.44 34.032 108.885 33.776C108.352 33.4987 107.925 33.1573 107.605 32.752C107.307 32.3467 107.157 31.8667 107.157 31.312C107.157 30.8 107.264 30.3733 107.477 30.032C107.691 29.6693 107.947 29.3707 108.245 29.136C108.864 29.4773 109.568 29.7867 110.357 30.064C111.168 30.32 112.096 30.448 113.141 30.448C113.803 30.448 114.304 30.352 114.645 30.16C115.008 29.968 115.189 29.712 115.189 29.392C115.189 29.0933 115.061 28.8587 114.805 28.688C114.549 28.5173 114.123 28.3787 113.525 28.272L112.565 28.08C110.709 27.7173 109.323 27.152 108.405 26.384C107.509 25.5947 107.061 24.4747 107.061 23.024C107.061 22.2347 107.232 21.52 107.573 20.88C107.915 20.24 108.395 19.7067 109.013 19.28C109.632 18.8533 110.368 18.5227 111.221 18.288C112.096 18.0533 113.056 17.936 114.101 17.936C114.891 17.936 115.627 18 116.309 18.128C117.013 18.2347 117.621 18.4053 118.133 18.64C118.645 18.8747 119.051 19.184 119.349 19.568C119.648 19.9307 119.797 20.368 119.797 20.88C119.797 21.3707 119.701 21.7973 119.509 22.16C119.339 22.5013 119.115 22.7893 118.837 23.024C118.667 22.9173 118.411 22.8107 118.069 22.704C117.728 22.576 117.355 22.4693 116.949 22.384C116.544 22.2773 116.128 22.192 115.701 22.128C115.296 22.064 114.923 22.032 114.581 22.032C113.877 22.032 113.333 22.1173 112.949 22.288C112.565 22.4373 112.373 22.6827 112.373 23.024C112.373 23.2587 112.48 23.4507 112.693 23.6C112.907 23.7493 113.312 23.888 113.909 24.016L114.901 24.24C116.949 24.7093 118.4 25.36 119.253 26.192C120.128 27.0027 120.565 28.0587 120.565 29.36ZM132.12 22.256C131.586 22.256 131.074 22.3413 130.584 22.512C130.114 22.6827 129.698 22.9387 129.336 23.28C128.994 23.6 128.717 24.0053 128.504 24.496C128.29 24.9867 128.184 25.5627 128.184 26.224C128.184 27.5467 128.557 28.5387 129.304 29.2C130.072 29.8613 131 30.192 132.088 30.192C132.728 30.192 133.282 30.1173 133.752 29.968C134.221 29.8187 134.637 29.6587 135 29.488C135.426 29.7867 135.746 30.1173 135.96 30.48C136.173 30.8213 136.28 31.2373 136.28 31.728C136.28 32.6027 135.864 33.2853 135.032 33.776C134.2 34.2453 133.048 34.48 131.576 34.48C130.232 34.48 129.016 34.288 127.928 33.904C126.84 33.4987 125.901 32.944 125.112 32.24C124.344 31.5147 123.746 30.6507 123.32 29.648C122.893 28.6453 122.68 27.536 122.68 26.32C122.68 24.912 122.904 23.6853 123.352 22.64C123.821 21.5733 124.45 20.6987 125.24 20.016C126.029 19.3333 126.936 18.8213 127.96 18.48C129.005 18.1387 130.104 17.968 131.256 17.968C132.792 17.968 133.976 18.2453 134.808 18.8C135.64 19.3547 136.056 20.0693 136.056 20.944C136.056 21.3493 135.96 21.7333 135.768 22.096C135.576 22.4373 135.352 22.736 135.096 22.992C134.733 22.8213 134.296 22.6613 133.784 22.512C133.272 22.3413 132.717 22.256 132.12 22.256ZM138.88 14.128C138.88 13.3173 139.146 12.6347 139.68 12.08C140.234 11.5253 140.96 11.248 141.856 11.248C142.752 11.248 143.466 11.5253 144 12.08C144.554 12.6347 144.832 13.3173 144.832 14.128C144.832 14.9387 144.554 15.6213 144 16.176C143.466 16.7307 142.752 17.008 141.856 17.008C140.96 17.008 140.234 16.7307 139.68 16.176C139.146 15.6213 138.88 14.9387 138.88 14.128ZM144.576 33.968C144.341 34.0107 143.989 34.064 143.52 34.128C143.072 34.2133 142.613 34.256 142.144 34.256C141.674 34.256 141.248 34.224 140.864 34.16C140.501 34.096 140.192 33.968 139.936 33.776C139.68 33.584 139.477 33.328 139.328 33.008C139.2 32.6667 139.136 32.2293 139.136 31.696V18.672C139.37 18.6293 139.712 18.576 140.16 18.512C140.629 18.4267 141.098 18.384 141.568 18.384C142.037 18.384 142.453 18.416 142.816 18.48C143.2 18.544 143.52 18.672 143.776 18.864C144.032 19.056 144.224 19.3227 144.352 19.664C144.501 19.984 144.576 20.4107 144.576 20.944V33.968ZM155.175 17.968C156.455 17.968 157.639 18.1387 158.727 18.48C159.836 18.8 160.786 19.3013 161.575 19.984C162.364 20.6667 162.983 21.5307 163.431 22.576C163.879 23.6 164.103 24.8267 164.103 26.256C164.103 27.6213 163.911 28.816 163.527 29.84C163.143 30.864 162.599 31.728 161.895 32.432C161.191 33.1147 160.338 33.6267 159.335 33.968C158.354 34.3093 157.255 34.48 156.039 34.48C155.122 34.48 154.268 34.3413 153.479 34.064V39.376C153.266 39.44 152.924 39.504 152.455 39.568C151.986 39.6533 151.506 39.696 151.015 39.696C150.546 39.696 150.119 39.664 149.735 39.6C149.372 39.536 149.063 39.408 148.807 39.216C148.551 39.024 148.359 38.7573 148.231 38.416C148.103 38.096 148.039 37.6693 148.039 37.136V21.776C148.039 21.2 148.156 20.7307 148.391 20.368C148.647 20.0053 148.988 19.6747 149.415 19.376C150.076 18.9493 150.898 18.608 151.879 18.352C152.86 18.096 153.959 17.968 155.175 17.968ZM155.239 30.192C157.436 30.192 158.535 28.88 158.535 26.256C158.535 24.8907 158.258 23.8773 157.703 23.216C157.17 22.5547 156.391 22.224 155.367 22.224C154.962 22.224 154.599 22.2773 154.279 22.384C153.959 22.4693 153.682 22.576 153.447 22.704V29.744C153.703 29.872 153.98 29.9787 154.279 30.064C154.578 30.1493 154.898 30.192 155.239 30.192ZM172.294 33.968C172.059 34.0107 171.707 34.064 171.238 34.128C170.79 34.2133 170.331 34.256 169.862 34.256C169.392 34.256 168.966 34.224 168.582 34.16C168.219 34.096 167.91 33.968 167.654 33.776C167.398 33.584 167.195 33.328 167.046 33.008C166.918 32.6667 166.854 32.2293 166.854 31.696V13.136C167.088 13.0933 167.43 13.04 167.878 12.976C168.347 12.8907 168.816 12.848 169.286 12.848C169.755 12.848 170.171 12.88 170.534 12.944C170.918 13.008 171.238 13.136 171.494 13.328C171.75 13.52 171.942 13.7867 172.07 14.128C172.219 14.448 172.294 14.8747 172.294 15.408V33.968ZM175.599 14.128C175.599 13.3173 175.865 12.6347 176.399 12.08C176.953 11.5253 177.679 11.248 178.575 11.248C179.471 11.248 180.185 11.5253 180.719 12.08C181.273 12.6347 181.551 13.3173 181.551 14.128C181.551 14.9387 181.273 15.6213 180.719 16.176C180.185 16.7307 179.471 17.008 178.575 17.008C177.679 17.008 176.953 16.7307 176.399 16.176C175.865 15.6213 175.599 14.9387 175.599 14.128ZM181.295 33.968C181.06 34.0107 180.708 34.064 180.239 34.128C179.791 34.2133 179.332 34.256 178.863 34.256C178.393 34.256 177.967 34.224 177.583 34.16C177.22 34.096 176.911 33.968 176.655 33.776C176.399 33.584 176.196 33.328 176.047 33.008C175.919 32.6667 175.855 32.2293 175.855 31.696V18.672C176.089 18.6293 176.431 18.576 176.879 18.512C177.348 18.4267 177.817 18.384 178.286 18.384C178.756 18.384 179.172 18.416 179.535 18.48C179.919 18.544 180.239 18.672 180.495 18.864C180.751 19.056 180.943 19.3227 181.071 19.664C181.22 19.984 181.295 20.4107 181.295 20.944V33.968ZM194.614 24.144C194.614 23.4827 194.422 23.0027 194.038 22.704C193.675 22.384 193.174 22.224 192.534 22.224C192.107 22.224 191.68 22.2773 191.254 22.384C190.848 22.4907 190.496 22.6507 190.198 22.864V33.968C189.984 34.032 189.643 34.096 189.174 34.16C188.726 34.224 188.256 34.256 187.766 34.256C187.296 34.256 186.87 34.224 186.486 34.16C186.123 34.096 185.814 33.968 185.558 33.776C185.302 33.584 185.099 33.328 184.95 33.008C184.822 32.6667 184.758 32.2293 184.758 31.696V22.096C184.758 21.52 184.875 21.0507 185.11 20.688C185.366 20.3253 185.707 19.9947 186.134 19.696C186.859 19.184 187.766 18.768 188.854 18.448C189.963 18.128 191.19 17.968 192.534 17.968C194.944 17.968 196.8 18.5013 198.102 19.568C199.403 20.6133 200.054 22.0747 200.054 23.952V33.968C199.84 34.032 199.499 34.096 199.03 34.16C198.582 34.224 198.112 34.256 197.622 34.256C197.152 34.256 196.726 34.224 196.342 34.16C195.979 34.096 195.67 33.968 195.414 33.776C195.158 33.584 194.955 33.328 194.806 33.008C194.678 32.6667 194.614 32.2293 194.614 31.696V24.144ZM211.638 34.512C210.379 34.512 209.206 34.3413 208.118 34C207.051 33.6373 206.113 33.104 205.302 32.4C204.513 31.696 203.883 30.8107 203.414 29.744C202.966 28.6773 202.742 27.4293 202.742 26C202.742 24.592 202.966 23.3867 203.414 22.384C203.883 21.36 204.491 20.528 205.238 19.888C205.985 19.2267 206.838 18.7467 207.798 18.448C208.758 18.128 209.739 17.968 210.742 17.968C211.873 17.968 212.897 18.1387 213.814 18.48C214.753 18.8213 215.553 19.2907 216.214 19.888C216.897 20.4853 217.419 21.2 217.782 22.032C218.166 22.864 218.358 23.7707 218.358 24.752C218.358 25.4773 218.155 26.032 217.75 26.416C217.345 26.8 216.779 27.0453 216.054 27.152L208.15 28.336C208.385 29.04 208.865 29.5733 209.59 29.936C210.315 30.2773 211.147 30.448 212.086 30.448C212.961 30.448 213.782 30.3413 214.55 30.128C215.339 29.8933 215.979 29.6267 216.47 29.328C216.811 29.5413 217.099 29.84 217.334 30.224C217.569 30.608 217.686 31.0133 217.686 31.44C217.686 32.4 217.238 33.1147 216.342 33.584C215.659 33.9467 214.891 34.192 214.038 34.32C213.185 34.448 212.385 34.512 211.638 34.512ZM210.742 21.936C210.23 21.936 209.782 22.0213 209.398 22.192C209.035 22.3627 208.737 22.5867 208.502 22.864C208.267 23.12 208.086 23.4187 207.958 23.76C207.851 24.08 207.787 24.4107 207.766 24.752L213.238 23.856C213.174 23.4293 212.939 23.0027 212.534 22.576C212.129 22.1493 211.531 21.936 210.742 21.936ZM220.017 31.408C220.017 30.512 220.294 29.7653 220.849 29.168C221.403 28.5707 222.161 28.272 223.121 28.272C224.081 28.272 224.838 28.5707 225.393 29.168C225.947 29.7653 226.225 30.512 226.225 31.408C226.225 32.304 225.947 33.0507 225.393 33.648C224.838 34.2453 224.081 34.544 223.121 34.544C222.161 34.544 221.403 34.2453 220.849 33.648C220.294 33.0507 220.017 32.304 220.017 31.408Z" fill="#1E1E1E"/>
</svg>
